<?xml version="1.0" standalone="no"?>
<!DOCTYPE svg PUBLIC "-//W3C//DTD SVG 20010904//EN"
 "http://www.w3.org/TR/2001/REC-SVG-20010904/DTD/svg10.dtd">
<svg version="1.0" xmlns="http://www.w3.org/2000/svg"
 width="512.000000pt" height="512.000000pt" viewBox="0 0 512.000000 512.000000"
 preserveAspectRatio="xMidYMid meet">

<g transform="translate(0.000000,512.000000) scale(0.100000,-0.100000)"
fill="#000000" stroke="none">
<path d="M1883 4785 c-12 -8 -26 -30 -33 -49 -9 -29 -7 -44 20 -115 61 -168
84 -276 84 -406 1 -117 -1 -123 -38 -215 -70 -171 -61 -312 35 -536 110 -257
108 -396 -12 -695 -167 -420 -595 -1098 -1074 -1700 -112 -140 -119 -152 -111
-194 8 -42 36 -66 174 -148 303 -182 613 -307 926 -373 179 -38 463 -45 631
-16 153 27 263 63 395 131 58 29 151 77 208 107 194 100 399 168 632 210 94
17 389 25 522 14 66 -5 105 16 121 64 14 43 3 65 -89 182 -406 510 -773 1062
-980 1476 -143 286 -204 469 -204 613 0 113 18 189 76 321 98 227 109 370 39
544 -66 165 -59 304 26 562 48 146 50 177 8 212 -37 32 -86 34 -122 6 -44 -35
-125 -290 -148 -469 l-12 -87 -62 -23 c-80 -28 -209 -108 -279 -172 l-56 -51
-56 51 c-70 64 -199 144 -279 173 l-63 22 -7 61 c-18 165 -101 442 -146 488
-32 31 -90 37 -126 12z"/>
</g>
</svg>
